<svg id="Line" height="512" viewBox="0 0 64 64" width="512" xmlns="http://www.w3.org/2000/svg"><path d="m62.12 40.2a3 3 0 0 1 0 4.24l-13.12 13.17a3 3 0 0 1 -5.12-2.26v-3h-22.61a2 2 0 0 1 -2-2.39l3.2-16a2 2 0 0 1 2-1.61h19.36v-3.08a3 3 0 0 1 5.17-2.27z" fill="#c4a2fc"/><path d="m47.12 5.5h-37.92a3 3 0 0 0 -2.94 2.41l-5.2 26a3 3 0 0 0 2.94 3.59h9.56v6.43a3 3 0 0 0 5 2.21l9.44-8.64h14a3 3 0 0 0 2.94-2.41l5.2-26a3 3 0 0 0 -3.02-3.59zm-4.22 29.2a1 1 0 0 1 -1 .8h-14.34a1 1 0 0 0 -.68.27l-9.64 8.9a1 1 0 0 1 -1.68-.74v-7.43a1 1 0 0 0 -1-1h-10.56a1 1 0 0 1 -1-1.2l5.2-26a1 1 0 0 1 1-.8h37.92a1 1 0 0 1 1 1.2zm-1.34-19.2a1 1 0 0 1 -1 1h-25a1 1 0 0 1 0-2h25a1 1 0 0 1 1 1zm-2 6a1 1 0 0 1 -1 1h-28a1 1 0 0 1 0-2h28a1 1 0 0 1 1 1zm-2 6a1 1 0 0 1 -1 1h-17a1 1 0 0 1 0-2h17a1 1 0 0 1 1 1z" fill="#151a6a"/></svg>